<?xml version="1.0" encoding="utf-8"?>
<!-- Generator: Adobe Illustrator 19.2.1, SVG Export Plug-In . SVG Version: 6.00 Build 0)  -->
<svg version="1.1" id="layer" xmlns="http://www.w3.org/2000/svg" xmlns:xlink="http://www.w3.org/1999/xlink" x="0px" y="0px"
	 viewBox="0 0 652 652" style="enable-background:new 0 0 652 652;" xml:space="preserve">
<style type="text/css">
	.st0{fill:#4A4A4A;}
	.st1{fill:#FDC300;}
</style>
<g>
	<g>
		<path class="st0" d="M108.9,199.9c-17.5,0-31.3,12.8-31.3,28.9c0,5.7,2.1,11.4,5.1,16.1c0,0,20,26.1,24.7,32.7c0.5,1,1.5,1,2.1,0
			c5.1-6.6,24.7-32.7,24.7-32.7c3.6-4.7,5.1-10,5.1-16.1C140.2,212.7,126.4,199.9,108.9,199.9z M117.6,236.9l-8.2,7.6
			c-0.5,0.5-0.5,0.5-1,0l-8.2-7.6c-2.3-2.1-3.6-5-3.6-8.1c0-6.6,5.6-11.4,12.3-11.4c7.2,0,12.3,5.2,12.3,11.4
			C121.2,231.7,120.2,234.6,117.6,236.9z"/>
		<path class="st1" d="M23.4,253c-1,0-1.4,0.5-1,1.4l62.8,91.1c0.5,0.9,0.5,2,0,2.9l-53.8,78c-1,1.5-3.8,2.9-5.2,2.9h-1
			c-1.9,0-3.8,1.5-3.8,3.9v4.8c0,1.5,1.4,2.9,3.3,2.9h39c1.9,0,4.3-1.5,5.2-2.9l38.6-56.7c0.5-1,1.4-1,1.9,0l38.6,56.7
			c1,1.5,3.8,2.9,5.2,2.9h39c1.9,0,3.3-1.5,3.3-3.4v-4.8c0.1-1.8-1.4-3.3-3.2-3.4c-0.1,0-0.1,0-0.2,0h0.5c-1.9,0-4.3-1.5-5.2-2.9
			L69.1,254c-0.5-1-1.9-1.5-2.9-1.5C66.2,253,23.4,253,23.4,253L23.4,253z M228.1,205.5h-42.8c-1,0-1.9,0.5-2.9,1.5l-60.5,87.7
			c-0.5,0.9-0.5,2,0,2.9l20.9,30.5c0.5,1,1.4,1,1.9,0L228.6,207C229.5,206.5,228.6,205.5,228.1,205.5L228.1,205.5z"/>
		<path class="st0" d="M295.3,379.4v-59.6c0-7.2-4.3-13.9-13.9-13.9c-5.7,0-10.1,1.9-13.9,5.8v67.8h-19.2v-60.1
			c0-8.2-5.3-13.5-15.8-13.5c-5.7,0-8.6,1-12.4,2.4v71.6h-19.2v-79.8c8.1-4.3,17.2-5.8,31.6-5.8c13.4,0,21.1,3.8,26.3,9.1
			c5.7-5.3,13.9-9.1,26.8-9.1c20.1,0,28.7,12.5,28.7,26v60.1L295.3,379.4z M353.7,413h-20.1l13.9-33.6l-27.8-84.1h20.1l14.4,54.3
			c1.9,6.7,1.9,12,1.9,12h0.5c0,0,0.5-5.3,2.4-12l15.8-54.3h17.7L353.7,413L353.7,413z M572.6,379.4l-15.8-30.3h-0.5l-16.3,30.3
			h-19.2l25.9-43.7l-23.5-40.9h20.1l13.9,27.4h0.5l14.8-27.4h17.7l-23.9,39.4l26.3,44.7C593.2,379.4,572.6,379.4,572.6,379.4z
			 M611,280.8c-5.7,0-10.5-4.3-10.5-9.6c0-5.3,4.8-9.6,10.5-9.6s10.5,4.3,10.5,9.6C621,276.7,616.4,280.9,611,280.8L611,280.8z
			 M601.4,379.4v-84.1h19.2v84.1H601.4z M484,381.3c-23,0-34.5-9.6-34.5-25.5c0-22.1,21.1-28.8,46.9-31.2v-4.3
			c0-11.1-6.7-13.9-16.8-13.9c-8.1,0-22.5,1.4-22.5,1.4v-12c0,0,12.9-1.4,25.9-1.4c17.2,0,31.1,7.2,31.1,28.8v56.7
			C514.7,379.4,497.4,381.3,484,381.3z M497,333.2c-17.7,1.9-28.7,5.8-28.7,21.2c0,11.1,6.7,15.9,17.7,15.9c4.3,0,11.5-1,11.5-1
			S497,333.2,497,333.2z M442.4,367.4h-0.5c-1.4,0.5-1.9,0.5-2.4,0.5c-6.7,0-9.1-4.3-9.1-11.1v-49h17.2v-12h-17.2v-24l-19.2,5.3
			v18.7h-8.1l-3.8,12h12v50c0,11.5,6.7,22.6,23,22.6c4.8,0,11-1.4,13.4-2.9C444.7,375.1,442.8,369.8,442.4,367.4L442.4,367.4z"/>
	</g>
</g>
</svg>
